<svg data-v-0dd9719b="" version="1.0" xmlns="http://www.w3.org/2000/svg" xmlns:xlink="http://www.w3.org/1999/xlink" width="100%" height="100%" viewBox="0 0 340.000000 250.000000" preserveAspectRatio="xMidYMid meet" color-interpolation-filters="sRGB" style="margin: auto;"> <rect data-v-0dd9719b="" x="0" y="0" width="100%" height="100%" fill="#ffffff" fill-opacity="1" class="background"></rect> <rect data-v-0dd9719b="" x="0" y="0" width="100%" height="100%" fill="url(#watermark)" fill-opacity="1" class="watermarklayer"></rect> <g data-v-0dd9719b="" fill="#04153e" class="icon-text-wrapper icon-svg-group iconsvg" transform="translate(49.05000305175781,95)"><g class="iconsvg-imagesvg" transform="translate(0,0)"><g><rect fill="#04153e" fill-opacity="0" stroke-width="2" x="0" y="0" width="60" height="60" class="image-rect"></rect> <svg x="0" y="0" width="60" height="60" filtersec="colorsb9705955071" class="image-svg-svg primary" style="overflow: visible;"><svg fill="#2c86d8" xmlns="http://www.w3.org/2000/svg" xmlns:xlink="http://www.w3.org/1999/xlink" version="1.0" x="0px" y="0px" viewBox="10 10 80 80" enable-background="new 0 0 100 100" xml:space="preserve"><path d="M43.333,53.333l13.334-0.003c13.304,0,24.752-7.815,30.101-19.085c-1.155-2.695-2.624-5.218-4.316-7.569  C79.473,38.151,69.06,46.663,56.667,46.663l-13.334,0.004c-12.451,0-23.753,4.932-32.132,12.91c0.603,2.435,1.416,4.785,2.438,7.021  C20.96,58.474,31.536,53.333,43.333,53.333z"></path><path d="M89.353,43.008C82.109,53.274,70.183,60,56.667,60H43.333c-10.641,0-20.094,5.003-26.197,12.771  c1.309,1.885,2.77,3.655,4.375,5.286c4.827-6.875,12.803-11.39,21.822-11.39h13.334c12.979,0,24.727-5.336,33.193-13.92  C89.922,51.836,90,50.928,90,50C90,47.61,89.753,45.283,89.353,43.008z"></path><path d="M43.333,33.333c-12.061,0-23.277,3.607-32.695,9.756C10.244,45.339,10,47.637,10,50c0,0.573,0.062,1.133,0.088,1.699  C19.212,44.395,30.762,40,43.333,40l13.334-0.003c10.947,0,19.856-8.845,19.986-19.763c-2.041-1.83-4.264-3.457-6.653-4.838v4.598  c0,7.354-5.979,13.336-13.333,13.336L43.333,33.333z"></path><path d="M43.333,26.666l13.334-0.002c3.675,0,6.666-2.992,6.666-6.67v-7.67C59.157,10.846,54.685,10,50,10  c-16.328,0-30.352,9.801-36.565,23.831C22.438,29.283,32.575,26.666,43.333,26.666z"></path><path d="M56.667,73.333H43.333c-6.992,0-13.147,3.613-16.725,9.066C33.19,87.161,41.257,90,50,90  c17.425,0,32.204-11.159,37.688-26.706C78.938,69.587,68.242,73.333,56.667,73.333z"></path></svg></svg> <!----></g></g> <g transform="translate(67,2.7931251525878906)"><g data-gra="path-name" fill-rule="" class="tp-name iconsvg-namesvg" transform="translate(0,0)"><g transform="scale(1)"><g><path d="M20.21-36.56L20.21-36.56Q24.61-36.21 25.49-35.86L25.49-35.86Q25.49-35.86 25.31-35.68L25.31-35.68Q24.26-34.28 24.26-31.64L24.26-31.64 24.26-29 36.56-29Q40.43-29 42.01-29.36L42.01-29.36 42.01-25.49Q40.25-25.84 36.74-25.84L36.74-25.84 24.26-25.84 24.26-19.69 33.05-19.69Q35.16-19.69 37.44-19.86L37.44-19.86Q38.67-20.04 39.2-20.04L39.2-20.04 39.2-16.17Q37.97-16.52 32.87-16.52L32.87-16.52 11.07-16.52Q8.61-16.52 5.98-16.17L5.98-16.17Q6.15-16.17 5.8-16.17L5.8-16.17 5.8-20.04Q6.15-20.04 6.68-20.04L6.68-20.04Q8.96-19.69 11.07-19.69L11.07-19.69 20.57-19.69 20.57-25.84 7.73-25.84Q4.57-25.84 2.64-25.49L2.64-25.49 2.64-29.53Q4.92-29 7.91-29L7.91-29 20.57-29 20.57-31.46Q20.57-34.45 20.21-36.39L20.21-36.39Q20.21-36.39 20.21-36.56ZM8.26-12.83L8.26-12.83Q11.07-12.48 15.29-12.48L15.29-12.48 29.88-12.48Q32.7-12.48 35.33-12.83L35.33-12.83Q36.21-12.83 36.56-12.83L36.56-12.83Q36.21-11.43 36.21-7.73L36.21-7.73 36.21-0.7Q36.21 2.11 36.56 4.04L36.56 4.04 32.17 4.04Q32.17 3.87 32.34 3.34L32.34 3.34Q32.52 2.29 32.52 1.05L32.52 1.05 12.48 1.05Q12.48 2.99 12.83 4.22L12.83 4.22 8.26 4.22Q8.61 2.99 8.61-0.7L8.61-0.7 8.61-7.73Q8.61-11.25 8.26-12.83ZM32.52-9.49L12.48-9.49 12.48-1.76 32.52-1.76 32.52-9.49ZM73.13-35.68L73.13-35.68Q77.7-35.68 78.05-35.16L78.05-35.16Q78.05-34.98 77.87-34.45L77.87-34.45Q76.82-33.22 76.82-31.11L76.82-31.11 76.82-26.02 80.68-26.02Q83.67-26.02 85.96-26.37L85.96-26.37 85.96-22.5Q83.5-22.85 80.68-22.85L80.68-22.85 77.52-22.85Q80.68-11.43 88.24-6.5L88.24-6.5Q88.24-6.33 87.89-6.15L87.89-6.15Q86.48-4.92 84.73-2.99L84.73-2.99Q78.93-8.79 76.82-18.11L76.82-18.11 76.82-3.87Q76.82 1.05 77.17 3.69L77.17 3.69 73.13 3.69Q73.48 0.88 73.48-3.69L73.48-3.69 73.48-19.86Q70.49-9.49 64.69-2.46L64.69-2.46Q62.75-3.34 61-3.87L61-3.87Q60.12-4.04 60.29-4.39L60.29-4.39Q68.38-10.72 71.37-22.85L71.37-22.85 70.49-22.85Q68.55-22.85 66.27-22.5L66.27-22.5 66.27-26.37Q68.73-26.02 71.19-26.02L71.19-26.02 73.48-26.02 73.48-31.82Q73.48-33.57 73.13-35.16L73.13-35.16Q73.13-35.68 73.13-35.68ZM55.55-35.68L55.55-35.68Q60.64-35.33 60.64-34.98L60.64-34.98Q60.64-34.8 60.47-34.45L60.47-34.45Q59.41-33.05 59.41-29.71L59.41-29.71 59.41-25.84 60.29-25.84Q63.11-25.84 65.04-26.37L65.04-26.37 65.04-22.32Q63.46-22.85 60.47-22.85L60.47-22.85 59.41-22.85 59.41-3.52Q59.41 2.64 59.77 3.52L59.77 3.52 55.55 3.52Q55.9 1.23 55.9-3.52L55.9-3.52 55.9-18.63Q54.67-10.72 50.63-4.04L50.63-4.04Q49.04-5.63 47.46-6.5L47.46-6.5Q46.93-6.68 47.11-6.86L47.11-6.86Q52.03-11.95 54.84-22.85L54.84-22.85 53.26-22.85Q50.45-22.85 48.52-22.32L48.52-22.32 48.52-26.37Q50.45-26.02 53.26-26.02L53.26-26.02 55.9-26.02 55.9-31.11Q55.9-32.34 55.72-34.8L55.72-34.8Q55.55-35.33 55.55-35.68ZM59.59-17.4L59.59-17.4 61.7-19.16Q63.11-17.93 65.92-13.54L65.92-13.54 63.11-11.25Q61.35-15.47 59.59-17.4ZM109.51-36.21L109.51-36.21Q114.61-36.21 114.79-35.68L114.79-35.68Q114.79-35.51 114.43-35.16L114.43-35.16Q113.91-34.45 113.73-33.93L113.73-33.93Q112.32-30.06 111.45-26.02L111.45-26.02 124.28-26.02Q127.62-26.02 130.25-26.37L130.25-26.37Q130.61-26.37 130.78-26.37L130.78-26.37 130.78-22.5Q130.78-22.5 130.43-22.5L130.43-22.5Q128.5-22.85 124.28-22.85L124.28-22.85 110.39-22.85Q109.69-20.57 108.63-18.11L108.63-18.11Q122.34-18.11 126.74-18.63L126.74-18.63Q123.22-8.96 117.6-3.87L117.6-3.87Q124.98 0 132.54-0.35L132.54-0.35Q130.78 1.05 129.73 4.04L129.73 4.04Q120.76 1.93 114.79-1.76L114.79-1.76Q108.11 2.11 99.67 4.04L99.67 4.04Q98.79 2.29 96.5 0.35L96.5 0.35Q104.59-0.18 112.15-4.22L112.15-4.22Q108.46-9.32 106.7-14.24L106.7-14.24Q102.48-5.63 94.92 0.18L94.92 0.18Q93.34-1.58 91.41-2.46L91.41-2.46Q101.78-8.79 106.7-22.85L106.7-22.85 103.36-22.85Q98.61-22.68 95.45-21.45L95.45-21.45Q95.27-21.45 95.27-21.45L95.27-21.45 93.69-25.31Q97.91-26.37 99.32-34.45L99.32-34.45Q103.36-33.22 104.06-32.7L104.06-32.7Q104.06-32.52 103.54-32.17L103.54-32.17Q102.66-31.46 102.13-30.76L102.13-30.76Q101.95-30.41 101.25-29.18L101.25-29.18Q100.02-27.07 99.32-26.02L99.32-26.02 107.75-26.02Q108.98-30.59 109.51-36.21ZM117.77-32.52L121.46-34.98Q124.98-31.46 126.56-29L126.56-29 123.05-26.72Q120.41-30.76 117.77-32.52L117.77-32.52ZM121.11-15.29L110.04-15.12Q111.97-10.37 114.96-6.15L114.96-6.15Q119.18-9.67 121.11-15.29L121.11-15.29ZM154.69-36.56L154.69-36.56Q157.68-36.56 159.08-36.39L159.08-36.39Q160.14-36.21 159.43-34.98L159.43-34.98Q158.73-33.93 158.73-33.05L158.73-33.05 158.73-29.53 167.34-29.53Q171.39-29.53 172.62-29.88L172.62-29.88 172.62-25.84Q171.21-26.19 167.34-26.19L167.34-26.19 158.91-26.19 158.91-19.51 172.62-19.51Q175.78-19.51 177.54-19.86L177.54-19.86 177.54-15.64Q176.13-16 172.79-16L172.79-16 158.91-16 158.91-11.07 160.49-13.36Q165.76-10.55 171.74-5.63L171.74-5.63 168.57-2.11Q165.76-4.92 158.91-9.14L158.91-9.14 158.91-1.05Q158.91 2.99 159.26 4.39L159.26 4.39 154.51 4.39Q154.86 3.16 154.86-1.05L154.86-1.05 154.86-16 143.26-16Q139.57-16 137.81-15.64L137.81-15.64 137.81-19.86Q139.39-19.51 143.61-19.51L143.61-19.51 154.86-19.51 154.86-32.52Q154.86-34.8 154.69-36.39L154.69-36.39Q154.69-36.56 154.69-36.56Z" transform="translate(-2.640000104904175, 36.560001373291016)"></path></g> <!----> <!----> <!----> <!----> <!----> <!----> <!----></g></g> <g data-gra="path-slogan" fill-rule="" class="tp-slogan iconsvg-slogansvg" fill="#04153E" transform="translate(5,47.95000076293945)"><rect x="0" height="1" y="3.2300000190734863" width="25.81999969482422"></rect> <rect height="1" y="3.2300000190734863" width="25.81999969482422" x="139.07999420166016"></rect> <g transform="translate(28.81999969482422,0)"><g transform="scale(1)"><path d="M0.16-1.60L0.16-2.30L1.05-2.30L1.05-1.80Q1.05-0.63 2.15-0.63L2.15-0.63Q3.28-0.63 3.28-1.88L3.28-1.88L3.28-7.15L4.26-7.15L4.26-1.91Q4.22 0.08 2.19 0.12L2.19 0.12Q0.27 0.08 0.16-1.60L0.16-1.60ZM5.90-7.15L6.88-7.15L6.88 0L5.90 0L5.90-7.15ZM8.52-7.15L9.49-7.15L9.49-0.86L13.13-0.86L13.13 0L8.52 0L8.52-7.15ZM14.22-7.15L15.20-7.15L15.20 0L14.22 0L14.22-7.15ZM18.01-7.15L21.60-1.37L21.60-7.15L22.54-7.15L22.54 0L21.45 0L17.81-5.78L17.77-5.78L17.77 0L16.84 0L16.84-7.15L18.01-7.15ZM32.77-5.04L32.77-5.04L31.84-5.04Q31.48-6.48 29.84-6.52L29.84-6.52Q27.58-6.41 27.50-3.63L27.50-3.63Q27.50-0.66 29.88-0.66L29.88-0.66Q31.52-0.70 31.91-2.66L31.91-2.66L32.85-2.66Q32.42 0.04 29.69 0.12L29.69 0.12Q26.56 0 26.48-3.59L26.48-3.59Q26.64-7.19 29.84-7.34L29.84-7.34Q32.38-7.27 32.77-5.04ZM38.71 0L38.01-2.07L35.12-2.07L34.38 0L33.40 0L36.09-7.15L37.19-7.15L39.77 0L38.71 0ZM36.56-6.09L35.43-2.93L37.66-2.93L36.60-6.09L36.56-6.09ZM44.06-3.09L41.72-3.09L41.72 0L40.74 0L40.74-7.15L44.06-7.15Q46.45-7.15 46.45-5.23L46.45-5.23Q46.45-4.06 45.43-3.52L45.43-3.52Q46.29-3.28 46.29-2.15L46.29-2.15L46.37-0.86Q46.33-0.31 46.72-0.16L46.72-0.16L46.72 0L45.51 0Q45.39-0.51 45.35-1.80L45.35-1.80Q45.39-3.09 44.06-3.09L44.06-3.09ZM44.14-6.37L41.72-6.37L41.72-3.91L43.98-3.91Q45.43-3.91 45.43-5.16L45.43-5.16Q45.43-6.37 44.14-6.37L44.14-6.37ZM50.74 0L47.85 0L47.85-7.15L50.78-7.15Q53.67-6.99 53.79-3.67L53.79-3.67Q53.63-0.08 50.74 0L50.74 0ZM50.63-6.37L48.83-6.37L48.83-0.82L50.70-0.82Q52.73-0.94 52.81-3.59L52.81-3.59Q52.77-6.29 50.63-6.37L50.63-6.37ZM57.93-7.15L58.91-7.15L58.91 0L57.93 0L57.93-7.15ZM65.78-5.08L65.78-5.08L64.88-5.08Q64.80-6.45 63.09-6.52L63.09-6.52Q61.48-6.48 61.48-5.27L61.48-5.27Q61.48-4.49 62.34-4.38L62.34-4.38L64.38-3.91Q65.98-3.52 65.98-1.95L65.98-1.95Q65.94 0.04 63.16 0.12L63.16 0.12Q61.64 0.12 61.02-0.51L61.02-0.51Q60.23-1.09 60.27-2.30L60.27-2.30L61.21-2.30Q61.25-0.66 63.16-0.63L63.16-0.63Q65.04-0.66 65.08-1.84L65.08-1.84Q65.23-2.81 63.52-3.13L63.52-3.13L62.03-3.44Q60.51-3.87 60.51-5.16L60.51-5.16Q60.63-7.27 63.01-7.34L63.01-7.34Q65.70-7.34 65.78-5.08ZM72.42-5.08L72.42-5.08L71.52-5.08Q71.45-6.45 69.73-6.52L69.73-6.52Q68.13-6.48 68.13-5.27L68.13-5.27Q68.13-4.49 68.98-4.38L68.98-4.38L71.02-3.91Q72.62-3.52 72.62-1.95L72.62-1.95Q72.58 0.04 69.80 0.12L69.80 0.12Q68.28 0.12 67.66-0.51L67.66-0.51Q66.88-1.09 66.91-2.30L66.91-2.30L67.85-2.30Q67.89-0.66 69.80-0.63L69.80-0.63Q71.68-0.66 71.72-1.84L71.72-1.84Q71.88-2.81 70.16-3.13L70.16-3.13L68.67-3.44Q67.15-3.87 67.15-5.16L67.15-5.16Q67.27-7.27 69.65-7.34L69.65-7.34Q72.34-7.34 72.42-5.08ZM78.55-2.66L78.55-7.15L79.53-7.15L79.53-2.54Q79.41 0.04 76.60 0.12L76.60 0.12Q73.98 0.04 73.87-2.38L73.87-2.38L73.87-7.15L74.84-7.15L74.84-2.66Q74.88-0.70 76.64-0.66L76.64-0.66Q78.55-0.70 78.55-2.66L78.55-2.66ZM85.74 0L85.04-2.07L82.15-2.07L81.41 0L80.43 0L83.13-7.15L84.22-7.15L86.80 0L85.74 0ZM83.59-6.09L82.46-2.93L84.69-2.93L83.63-6.09L83.59-6.09ZM88.83-7.15L92.42-1.37L92.42-7.15L93.36-7.15L93.36 0L92.27 0L88.63-5.78L88.59-5.78L88.59 0L87.66 0L87.66-7.15L88.83-7.15ZM100.82-5.04L100.82-5.04L99.88-5.04Q99.53-6.48 97.89-6.52L97.89-6.52Q95.63-6.41 95.55-3.63L95.55-3.63Q95.55-0.66 97.93-0.66L97.93-0.66Q99.57-0.70 99.96-2.66L99.96-2.66L100.90-2.66Q100.47 0.04 97.73 0.12L97.73 0.12Q94.61 0 94.53-3.59L94.53-3.59Q94.69-7.19 97.89-7.34L97.89-7.34Q100.43-7.27 100.82-5.04ZM103.13-0.86L107.42-0.86L107.42 0L102.15 0L102.15-7.15L107.34-7.15L107.34-6.33L103.13-6.33L103.13-4.10L107.03-4.10L107.03-3.24L103.13-3.24L103.13-0.86Z" transform="translate(-0.15625, 7.34375)"></path></g></g></g></g></g><defs v-gra="od"></defs></svg>